HIERARCHY
ROOT hip
{
  OFFSET 0 0 0
  CHANNELS 6 Xposition Yposition Zposition Zrotation Yrotation Xrotation
  JOINT abdomen
  {
    OFFSET 0 20.6881 -0.73152
    CHANNELS 3 Zrotation Xrotation Yrotation
    JOINT chest
    {
      OFFSET 0 11.7043 -0.48768
      CHANNELS 3 Zrotation Xrotation Yrotation
      JOINT neck
      {
        OFFSET 0 22.1894 -2.19456
        CHANNELS 3 Zrotation Xrotation Yrotation
        JOINT head
        {
          OFFSET -0.24384 7.07133 1.2192
          CHANNELS 3 Zrotation Xrotation Yrotation
          JOINT leftEye
          {
            OFFSET 4.14528 8.04674 8.04672
            CHANNELS 3 Zrotation Xrotation Yrotation
            End Site
            {
              OFFSET 1 0 0
            }
          }
          JOINT rightEye
          {
            OFFSET -3.6576 8.04674 8.04672
            CHANNELS 3 Zrotation Xrotation Yrotation
            End Site
            {
              OFFSET 1 0 0
            }
          }
        }
      }
      JOINT rCollar
      {
        OFFSET -2.68224 19.2634 -4.8768
        CHANNELS 3 Zrotation Xrotation Yrotation
        JOINT rShldr
        {
          OFFSET -8.77824 -1.95073 1.46304
          CHANNELS 3 Zrotation Xrotation Yrotation
          JOINT rForeArm
          {
            OFFSET -28.1742 -1.7115 0.48768
            CHANNELS 3 Zrotation Xrotation Yrotation
            JOINT rHand
            {
              OFFSET -22.5879 0.773209 7.07136
              CHANNELS 3 Zrotation Xrotation Yrotation
              JOINT rThumb1
              {
                OFFSET -1.2192 -0.487915 3.41376
                CHANNELS 3 Zrotation Xrotation Yrotation
                JOINT rThumb2
                {
                  OFFSET -3.37035 -0.52449 3.41376
                  CHANNELS 3 Zrotation Xrotation Yrotation
                  End Site
                  {
                    OFFSET -1.78271 -1.18214 1.43049
                  }
                }
              }
              JOINT rIndex1
              {
                OFFSET -7.75947 0.938293 5.60832
                CHANNELS 3 Zrotation Xrotation Yrotation
                JOINT rIndex2
                {
                  OFFSET -2.54057 -0.884171 1.56538
                  CHANNELS 3 Zrotation Xrotation Yrotation
                  End Site
                  {
                    OFFSET -1.62519 -0.234802 1.16502
                  }
                }
              }
              JOINT rMid1
              {
                OFFSET -8.24714 1.18213 3.41376
                CHANNELS 3 Zrotation Xrotation Yrotation
                JOINT rMid2
                {
                  OFFSET -3.10165 -0.590103 1.0647
                  CHANNELS 3 Zrotation Xrotation Yrotation
                  End Site
                  {
                    OFFSET -2.48547 -0.328903 0.83742
                  }
                }
              }
              JOINT rRing1
              {
                OFFSET -8.82822 0.546677 1.51678
                CHANNELS 3 Zrotation Xrotation Yrotation
                JOINT rRing2
                {
                  OFFSET -2.60934 -0.819778 -0.0198488
                  CHANNELS 3 Zrotation Xrotation Yrotation
                  End Site
                  {
                    OFFSET -2.33842 -0.294052 0.168128
                  }
                }
              }
              JOINT rPinky1
              {
                OFFSET -8.27202 -0.0477905 -0.4584
                CHANNELS 3 Zrotation Xrotation Yrotation
                JOINT rPinky2
                {
                  OFFSET -1.82734 -0.647385 -0.700984
                  CHANNELS 3 Zrotation Xrotation Yrotation
                  End Site
                  {
                    OFFSET -1.69225 -0.51767 -0.607171
                  }
                }
              }
            }
          }
        }
      }
      JOINT lCollar
      {
        OFFSET 2.68224 19.2634 -4.8768
        CHANNELS 3 Zrotation Xrotation Yrotation
        JOINT lShldr
        {
          OFFSET 8.77824 -1.95073 1.46304
          CHANNELS 3 Zrotation Xrotation Yrotation
          JOINT lForeArm
          {
            OFFSET 28.1742 -1.7115 0.48768
            CHANNELS 3 Zrotation Xrotation Yrotation
            JOINT lHand
            {
              OFFSET 22.5879 0.773209 7.07136
              CHANNELS 3 Zrotation Xrotation Yrotation
              JOINT lThumb1
              {
                OFFSET 1.2192 -0.487915 3.41376
                CHANNELS 3 Zrotation Xrotation Yrotation
                JOINT lThumb2
                {
                  OFFSET 3.37035 -0.52449 3.41376
                  CHANNELS 3 Zrotation Xrotation Yrotation
                  End Site
                  {
                    OFFSET 1.78271 -1.18214 1.43049
                  }
                }
              }
              JOINT lIndex1
              {
                OFFSET 7.75947 0.938293 5.60832
                CHANNELS 3 Zrotation Xrotation Yrotation
                JOINT lIndex2
                {
                  OFFSET 2.54057 -0.884171 1.56538
                  CHANNELS 3 Zrotation Xrotation Yrotation
                  End Site
                  {
                    OFFSET 1.62519 -0.234802 1.16502
                  }
                }
              }
              JOINT lMid1
              {
                OFFSET 8.24714 1.18213 3.41376
                CHANNELS 3 Zrotation Xrotation Yrotation
                JOINT lMid2
                {
                  OFFSET 3.10165 -0.590103 1.0647
                  CHANNELS 3 Zrotation Xrotation Yrotation
                  End Site
                  {
                    OFFSET 2.48547 -0.328903 0.83742
                  }
                }
              }
              JOINT lRing1
              {
                OFFSET 8.82822 0.546677 1.51678
                CHANNELS 3 Zrotation Xrotation Yrotation
                JOINT lRing2
                {
                  OFFSET 2.60934 -0.819778 -0.0198488
                  CHANNELS 3 Zrotation Xrotation Yrotation
                  End Site
                  {
                    OFFSET 2.33842 -0.294052 0.168128
                  }
                }
              }
              JOINT lPinky1
              {
                OFFSET 8.27202 -0.0477905 -0.4584
                CHANNELS 3 Zrotation Xrotation Yrotation
                JOINT lPinky2
                {
                  OFFSET 1.82734 -0.647385 -0.700984
                  CHANNELS 3 Zrotation Xrotation Yrotation
                  End Site
                  {
                    OFFSET 1.69225 -0.51767 -0.607171
                  }
                }
              }
            }
          }
        }
      }
    }
  }
  JOINT rButtock
  {
    OFFSET -8.77824 4.35084 1.2192
    CHANNELS 3 Zrotation Xrotation Yrotation
    JOINT rThigh
    {
      OFFSET 0 -1.70687 -2.19456
      CHANNELS 3 Zrotation Xrotation Yrotation
      JOINT rShin
      {
        OFFSET 0 -36.8199 0.73152
        CHANNELS 3 Zrotation Xrotation Yrotation
        JOINT rFoot
        {
          OFFSET 0.73152 -45.1104 -5.12064
          CHANNELS 3 Zrotation Xrotation Yrotation
          End Site
          {
            OFFSET -1.1221 -3.69964 12.103
          }
        }
      }
    }
  }
  JOINT lButtock
  {
    OFFSET 8.77824 4.35084 1.2192
    CHANNELS 3 Zrotation Xrotation Yrotation
    JOINT lThigh
    {
      OFFSET 0 -1.70687 -2.19456
      CHANNELS 3 Zrotation Xrotation Yrotation
      JOINT lShin
      {
        OFFSET 0 -36.8199 0.73152
        CHANNELS 3 Zrotation Xrotation Yrotation
        JOINT lFoot
        {
          OFFSET -0.73152 -45.1104 -5.12064
          CHANNELS 3 Zrotation Xrotation Yrotation
          End Site
          {
            OFFSET 1.1221 -3.69964 12.103
          }
        }
      }
    }
  }
}
MOTION
Frames:	8
Frame Time:	0.00833333
35.4746 72.7955 -71.2551 -17.5663 -40.8369 26.5685 8.98359 15.2544 -3.95559 6.80978 -4.83988 -0.551037 -10.8115 1.976 -1.38468 19.817 3.70408 -1.20373 -0.0 0.0 0.0 -0.0 0.0 0.0 -8.18184e-14 -2.56336e-13 4.73422e-14 61.8849 14.6061 12.3896 -20.3755 -13.4852 39.6234 -0.326765 -16.0534 -2.31771 1.61903e-09 -3.91238e-10 -6.51731e-10 2.80783e-09 -6.76294e-10 -1.10755e-09 1.61904e-09 -3.91234e-10 -6.51735e-10 7.73091 5.47488 0.417314 1.61903e-09 -3.91237e-10 -6.51729e-10 2.90554 0.965183 0.102902 1.61903e-09 -3.91235e-10 -6.51728e-10 10.2786 0.731801 0.0259123 1.61903e-09 -3.91232e-10 -6.51724e-10 2.22167 -0.733487 -0.20892 -8.19991e-14 -2.56331e-13 4.71438e-14 -56.2001 -26.2157 -12.2985 11.3912 -5.0307 -20.4378 0.212798 13.0328 -1.86419 -2.15399e-09 -6.03628e-09 -1.56762e-09 -3.74106e-09 -1.04255e-08 -2.6824e-09 -2.15399e-09 -6.03628e-09 -1.56761e-09 -7.73091 5.47488 -0.417314 -2.15399e-09 -6.03629e-09 -1.56762e-09 -2.90554 0.965183 -0.102902 -2.15399e-09 -6.03628e-09 -1.56763e-09 -10.2786 0.731801 -0.0259123 -2.15398e-09 -6.03627e-09 -1.56764e-09 -2.22167 -0.733487 0.20892 -2.03217e-16 0.0 -3.88251e-19 6.37849 -43.961 -2.24387 -2.24518 71.3197 2.72515 -3.70945 -18.6597 -6.97776 2.03217e-16 0.0 3.88251e-19 17.3513 -37.78 17.5634 11.5159 85.1954 -12.1224 3.10893 -14.1033 7.50142
35.1268 72.6287 -70.672 -17.6395 -40.2064 26.9382 9.38131 15.2383 -3.60939 6.60192 -4.7735 -0.456405 -11.1112 2.02065 -1.65873 20.4678 3.32696 -1.61898 -0.0 0.0 0.0 -0.0 0.0 0.0 -1.42209e-14 -4.51648e-13 -2.92512e-13 61.0331 14.8395 13.3999 -20.6645 -13.871 40.3184 -0.316986 -15.8164 -2.2817 2.01248e-09 -4.01211e-10 -1.20233e-09 3.49389e-09 -6.94395e-10 -2.05886e-09 2.01248e-09 -4.01207e-10 -1.20234e-09 7.73091 5.47488 0.417314 2.01248e-09 -4.01209e-10 -1.20233e-09 2.90554 0.965183 0.102902 2.01248e-09 -4.01205e-10 -1.20233e-09 10.2786 0.731801 0.0259123 2.01248e-09 -4.01203e-10 -1.20232e-09 2.22167 -0.733487 -0.20892 -1.44051e-14 -4.51631e-13 -2.9271e-13 -54.8751 -26.6644 -11.8754 11.3888 -5.02916 -20.4332 0.218264 13.1905 -1.8876 -7.79487e-10 -5.16789e-09 -2.62991e-09 -1.37721e-09 -8.96705e-09 -4.53388e-09 -7.7949e-10 -5.16789e-09 -2.6299e-09 -7.73091 5.47488 -0.417314 -7.79495e-10 -5.1679e-09 -2.62991e-09 -2.90554 0.965183 -0.102902 -7.79487e-10 -5.16789e-09 -2.62991e-09 -10.2786 0.731801 -0.0259123 -7.79481e-10 -5.16788e-09 -2.62992e-09 -2.22167 -0.733487 0.20892 -2.03217e-16 0.0 -3.88251e-19 6.32543 -43.0863 -2.65732 -2.16341 70.8626 2.66601 -3.73921 -19.2356 -6.92687 2.03217e-16 0.0 3.88251e-19 19.3503 -40.2034 19.4725 20.4068 87.1391 -21.0007 2.73351 -14.0695 6.39386
34.7513 72.5287 -70.0044 -17.6119 -39.7814 27.2348 9.66947 15.168 -3.15827 6.36349 -4.71794 -0.337042 -11.2338 2.03369 -1.95954 20.971 3.05788 -2.13835 -0.0 0.0 0.0 -0.0 0.0 0.0 1.93363e-13 -2.85605e-13 -5.79349e-13 60.2443 14.9866 14.2224 -21.0235 -14.3615 41.2077 -0.309867 -15.6422 -2.25527 1.40957e-09 -3.26449e-10 -1.02982e-09 2.45011e-09 -5.67123e-10 -1.77058e-09 1.40957e-09 -3.26446e-10 -1.02983e-09 7.73091 5.47488 0.417314 1.40957e-09 -3.26447e-10 -1.02982e-09 2.90554 0.965183 0.102902 1.40957e-09 -3.26441e-10 -1.02982e-09 10.2786 0.731801 0.0259123 1.40957e-09 -3.2644e-10 -1.02982e-09 2.22167 -0.733487 -0.20892 1.93158e-13 -2.8558e-13 -5.7957e-13 -53.4628 -26.996 -11.4378 11.3991 -5.03518 -20.4546 0.220262 13.2412 -1.89519 8.18112e-10 -2.63782e-09 -3.36383e-09 1.3765e-09 -4.63133e-09 -5.82045e-09 8.18108e-10 -2.63782e-09 -3.36383e-09 -7.73091 5.47488 -0.417314 8.18105e-10 -2.63782e-09 -3.36383e-09 -2.90554 0.965183 -0.102902 8.1811e-10 -2.63781e-09 -3.36384e-09 -10.2786 0.731801 -0.0259123 8.18119e-10 -2.63781e-09 -3.36385e-09 -2.22167 -0.733487 0.20892 -2.03217e-16 0.0 -3.88251e-19 6.14891 -41.9007 -3.10689 -2.03109 70.0601 2.56006 -3.78431 -19.9495 -6.88672 2.03217e-16 0.0 3.88251e-19 21.2024 -42.6057 21.3781 44.3125 88.5258 -44.8874 2.40835 -13.7589 5.49862
34.292 72.5102 -69.156 -17.7554 -39.2954 27.4466 9.88334 15.0443 -2.62248 6.07683 -4.65519 -0.199255 -11.2369 2.03733 -2.29192 21.4129 2.8255 -2.75094 -0.0 0.0 0.0 -0.0 0.0 0.0 4.98187e-13 1.00073e-13 -8.61803e-13 59.5403 15.0301 14.9236 -21.4268 -14.9232 42.2603 -0.303676 -15.4898 -2.23216 1.82735e-10 -1.90235e-10 -4.22441e-10 3.23274e-10 -3.34469e-10 -7.37383e-10 1.82741e-10 -1.90233e-10 -4.22453e-10 7.73091 5.47488 0.417314 1.82735e-10 -1.90232e-10 -4.22441e-10 2.90554 0.965183 0.102902 1.82736e-10 -1.90225e-10 -4.2244e-10 10.2786 0.731801 0.0259123 1.82734e-10 -1.90224e-10 -4.22436e-10 2.22167 -0.733487 -0.20892 4.97952e-13 1.00101e-13 -8.62064e-13 -51.9659 -27.2338 -11.0117 11.4179 -5.04621 -20.4933 0.220195 13.2293 -1.89349 2.68477e-09 1.07168e-09 -3.97773e-09 4.59699e-09 1.74255e-09 -6.9027e-09 2.68477e-09 1.07168e-09 -3.97772e-09 -7.73091 5.47488 -0.417314 2.68477e-09 1.07167e-09 -3.97773e-09 -2.90554 0.965183 -0.102902 2.68477e-09 1.07168e-09 -3.97773e-09 -10.2786 0.731801 -0.0259123 2.68478e-09 1.07168e-09 -3.97774e-09 -2.22167 -0.733487 0.20892 -2.03217e-16 0.0 -3.88251e-19 5.90285 -40.4844 -3.58342 -1.86861 68.9846 2.42773 -3.83399 -20.7906 -6.83822 2.03217e-16 0.0 3.88251e-19 23.0463 -45.0299 23.3626 103.295 88.9139 -103.847 2.11972 -13.2867 4.72448
33.7324 72.6767 -68.081 -17.9087 -38.94 27.4572 10.0842 14.9132 -2.05737 5.80766 -4.61203 -0.0524284 -11.1941 2.0391 -2.63553 21.7973 2.6543 -3.40719 -0.0 0.0 0.0 -0.0 0.0 0.0 7.78209e-13 5.08065e-13 -1.07429e-12 58.864 15.0273 15.5322 -21.8546 -15.5402 43.4085 -0.297731 -15.3427 -2.20989 -1.04151e-09 -1.21026e-10 1.96091e-10 -1.79903e-09 -2.17941e-10 3.15665e-10 -1.0415e-09 -1.21026e-10 1.96076e-10 7.73091 5.47488 0.417314 -1.04151e-09 -1.21024e-10 1.96089e-10 2.90554 0.965183 0.102902 -1.0415e-09 -1.21016e-10 1.9609e-10 10.2786 0.731801 0.0259123 -1.04151e-09 -1.21016e-10 1.96095e-10 2.22167 -0.733487 -0.20892 7.77952e-13 5.08096e-13 -1.07458e-12 -50.4915 -27.4035 -10.5097 11.4822 -5.08939 -20.6169 0.216223 13.1117 -1.87606 4.23635e-09 4.44095e-09 -4.42576e-09 7.2749e-09 7.53602e-09 -7.69501e-09 4.23634e-09 4.44096e-09 -4.42576e-09 -7.73091 5.47488 -0.417314 4.23635e-09 4.44095e-09 -4.42576e-09 -2.90554 0.965183 -0.102902 4.23634e-09 4.44096e-09 -4.42576e-09 -10.2786 0.731801 -0.0259123 4.23636e-09 4.44096e-09 -4.42577e-09 -2.22167 -0.733487 0.20892 -2.03217e-16 0.0 -3.88251e-19 5.74465 -38.8695 -3.96515 -1.69214 67.6611 2.2833 -3.91181 -21.5845 -6.86924 2.03217e-16 0.0 3.88251e-19 24.9962 -47.3769 25.455 138.431 88.3757 -138.958 1.87791 -12.8352 4.05716
33.1636 72.9143 -66.9856 -18.0115 -38.5992 27.4627 10.331 14.821 -1.51766 5.62197 -4.61531 0.0940786 -11.1788 2.04655 -2.97 22.13 2.56875 -4.05761 -0.0 0.0 0.0 -0.0 0.0 0.0 9.11383e-13 7.4105e-13 -1.15121e-12 58.1551 15.0344 16.078 -22.2912 -16.2009 44.5841 -0.291402 -15.1844 -2.18597 -1.63664e-09 -2.47282e-10 4.02054e-10 -2.82924e-09 -4.39044e-10 6.63491e-10 -1.63663e-09 -2.47283e-10 4.02038e-10 7.73091 5.47488 0.417314 -1.63664e-09 -2.4728e-10 4.02051e-10 2.90554 0.965183 0.102902 -1.63663e-09 -2.47273e-10 4.02052e-10 10.2786 0.731801 0.0259123 -1.63663e-09 -2.47272e-10 4.02057e-10 2.22167 -0.733487 -0.20892 9.11135e-13 7.41086e-13 -1.15151e-12 -49.1451 -27.5298 -9.84397 11.6285 -5.19153 -20.8932 0.206758 12.8457 -1.83652 4.8887e-09 5.95037e-09 -4.66212e-09 8.40089e-09 1.01305e-08 -8.11177e-09 4.88869e-09 5.95038e-09 -4.66211e-09 -7.73091 5.47488 -0.417314 4.8887e-09 5.95037e-09 -4.66212e-09 -2.90554 0.965183 -0.102902 4.88869e-09 5.95037e-09 -4.66212e-09 -10.2786 0.731801 -0.0259123 4.88871e-09 5.95038e-09 -4.66212e-09 -2.22167 -0.733487 0.20892 -2.03217e-16 0.0 -3.88251e-19 5.8121 -37.0887 -4.14306 -1.51516 66.115 2.13841 -4.04587 -22.1562 -7.06818 2.03217e-16 0.0 3.88251e-19 27.1504 -49.5478 27.6653 149.115 87.8745 -149.619 1.68452 -12.587 3.48
32.5889 73.0658 -65.9916 -18.3337 -38.0704 27.6429 10.636 14.7907 -1.00025 5.54317 -4.67996 0.243266 -11.1909 2.10508 -3.27697 22.3687 2.51933 -4.66147 -0.0 0.0 0.0 -0.0 0.0 0.0 8.06538e-13 7.02817e-13 -1.0042e-12 57.4044 15.0321 16.5608 -22.7327 -16.9021 45.7995 -0.283572 -14.9865 -2.15609 -1.2531e-09 -7.49079e-10 -1.32008e-10 -2.15937e-09 -1.30969e-09 -2.5552e-10 -1.25309e-09 -7.49082e-10 -1.32022e-10 7.73091 5.47488 0.417314 -1.2531e-09 -7.4908e-10 -1.3201e-10 2.90554 0.965183 0.102902 -1.25309e-09 -7.49073e-10 -1.3201e-10 10.2786 0.731801 0.0259123 -1.2531e-09 -7.49072e-10 -1.32006e-10 2.22167 -0.733487 -0.20892 8.06354e-13 7.02863e-13 -1.00445e-12 -47.9898 -27.5881 -8.94578 11.9103 -5.39109 -21.4274 0.190403 12.3644 -1.76528 4.07818e-09 4.36971e-09 -4.5207e-09 7.00219e-09 7.40808e-09 -7.86e-09 4.07817e-09 4.36972e-09 -4.52069e-09 -7.73091 5.47488 -0.417314 4.07818e-09 4.36972e-09 -4.5207e-09 -2.90554 0.965183 -0.102902 4.07817e-09 4.36972e-09 -4.5207e-09 -10.2786 0.731801 -0.0259123 4.07818e-09 4.36972e-09 -4.5207e-09 -2.22167 -0.733487 0.20892 -2.03217e-16 0.0 -3.88251e-19 6.15412 -35.1046 -4.06184 -1.3379 64.2967 1.99565 -4.29072 -22.5209 -7.5355 2.03217e-16 0.0 3.88251e-19 29.5747 -51.5466 30.0585 152.046 87.6588 -152.53 1.53666 -12.6353 2.99311
31.9957 73.2744 -64.9258 -18.6779 -37.5291 27.761 10.9673 14.7941 -0.481444 5.53474 -4.78907 0.398343 -11.197 2.19616 -3.57165 22.5281 2.51154 -5.25447 -0.0 0.0 0.0 -0.0 0.0 0.0 5.48307e-13 5.13132e-13 -6.9187e-13 56.6432 15.0032 16.9671 -23.1761 -17.6361 47.0877 -0.274994 -14.7657 -2.12284 -2.8587e-10 -1.5093e-09 -1.10862e-09 -4.75449e-10 -2.62746e-09 -1.93191e-09 -2.85859e-10 -1.50931e-09 -1.10863e-09 7.73091 5.47488 0.417314 -2.85868e-10 -1.5093e-09 -1.10862e-09 2.90554 0.965183 0.102902 -2.85864e-10 -1.5093e-09 -1.10862e-09 10.2786 0.731801 0.0259123 -2.85872e-10 -1.5093e-09 -1.10862e-09 2.22167 -0.733487 -0.20892 5.48225e-13 5.13192e-13 -6.92035e-13 -46.9623 -27.5702 -7.87879 12.288 -5.66046 -22.1551 0.170062 11.7091 -1.6689 2.25228e-09 7.84447e-10 -4.07725e-09 3.85166e-09 1.23863e-09 -7.07542e-09 2.25227e-09 7.8445e-10 -4.07723e-09 -7.73091 5.47488 -0.417314 2.25228e-09 7.84447e-10 -4.07724e-09 -2.90554 0.965183 -0.102902 2.25227e-09 7.84447e-10 -4.07725e-09 -10.2786 0.731801 -0.0259123 2.25229e-09 7.84448e-10 -4.07725e-09 -2.22167 -0.733487 0.20892 -2.03217e-16 0.0 -3.88251e-19 6.65609 -32.9142 -3.81326 -1.16295 62.2116 1.85777 -4.61973 -22.7487 -8.1991 2.03217e-16 0.0 3.88251e-19 32.2083 -53.4107 32.6189 150.714 87.7555 -151.178 1.42448 -12.8695 2.60149
